<?xml version="1.0" encoding="utf-8"?>
<!-- Generator: Adobe Illustrator 17.0.0, SVG Export Plug-In . SVG Version: 6.00 Build 0)  -->
<!DOCTYPE svg PUBLIC "-//W3C//DTD SVG 1.1//EN" "http://www.w3.org/Graphics/SVG/1.1/DTD/svg11.dtd">
<svg version="1.1" xmlns="http://www.w3.org/2000/svg" xmlns:xlink="http://www.w3.org/1999/xlink" x="0px" y="0px" width="500px"
	 height="555px" viewBox="0 0 500 555" enable-background="new 0 0 500 555" xml:space="preserve">
<g id="Layer_1">
</g>
<g id="Layer_2">
</g>
<g id="Layer_3">
	<g>
		<path fill="#2D2317" d="M296.722,453.692c6.168,10.2-29.666,14.962-34.856,15.774c-11.534,1.805-22.757,3.422-23.293,17.379
			c-0.193,5.022,2.869,10.062,8.532,8.456c4.697-1.333,7.019-6.665,11.502-8.907c6.788-3.396,14.382-4.07,21.732-5.626
			c9.751-2.063,19.531-4.335,28.912-7.24c6.54-2.025,20.877-6.936,20.882-16.226C330.137,448.489,305.509,451.408,296.722,453.692z"
			/>
		<path fill="#2D2317" d="M234.926,439.258c6.168,10.2-29.666,14.962-34.856,15.774c-11.534,1.805-22.757,3.422-23.293,17.379
			c-0.193,5.022,2.869,10.062,8.532,8.456c4.697-1.333,7.019-6.665,11.502-8.907c6.788-3.396,14.382-4.07,21.732-5.626
			c9.751-2.063,19.531-4.335,28.912-7.24c6.54-2.025,20.877-6.936,20.882-16.226C268.341,434.055,243.713,436.974,234.926,439.258z"
			/>
		<path fill="#FCDEBE" d="M176.738,362.577c-0.129,7.948,8.387,18.029,11.277,25.383c3.379,8.601,8.181,16.243,13.432,23.77
			c6.37,9.132,16.2,17.779,24.558,25.258c13.27,11.874,29.158,24.482,47.219,26.214c6.875,0.659,13.91,0.991,19.89-3.173
			c10.167-7.079,6.319-23.336,3.721-33.161c-9.22-34.869-28.982-66.057-52.662-92.522c-3.796-4.243-6.398-9.284-10.951-12.817
			c-5.431-4.215-14.416-5.716-21.292-4.994c-11.179,1.175-24.512,9.181-30.242,18.956C177.926,341.91,177.92,351.03,176.738,362.577
			z"/>
		<path fill="#BF3421" d="M236.279,336.866c0,0,14.885,18.494,20.749,26.162c5.864,7.668,9.472,16.238,9.472,16.238
			s-9.923,9.472-7.217,27.966c2.706,18.494,3.609,42.4,33.83,50.971c30.221,8.57,41.949,2.255,51.422-12.179
			c9.472-14.434,13.081-49.617-3.609-68.111c-16.689-18.494-40.145-35.183-58.188-52.324s-34.732-45.107-41.047-55.481
			c-6.315-10.375-23.004,23.004-23.004,23.004L236.279,336.866z"/>
		<path fill="#2D2317" d="M152.38,345.436c4.021,3.087,3.054,12.564,3.498,17.161c0.674,6.972,1.748,13.873,2.354,20.829
			c1.039,11.922,1.965,23.795,2.493,35.76c0.704,15.955,3.698,31.515,2.932,47.587c-0.343,7.19-4.669,5.521-9.923,8.925
			c-9.119,5.908,1.118,8.128,7.117,8.69c6.39,0.599,16.608,0.852,20.122-5.416c2.789-4.974,2.081-11.449,2.081-16.873
			c0-8.815-0.065-17.629-0.428-26.426c-0.859-20.852-2.588-41.733-3.642-62.624c-0.46-9.116,0.554-16.366-6.382-23.205
			C165.337,342.684,161.198,340.987,152.38,345.436z"/>
		<path fill="#2D2317" d="M203.351,347.691c4.021,3.087,3.054,12.564,3.498,17.161c0.674,6.972,1.748,13.873,2.354,20.829
			c1.039,11.922,1.965,23.795,2.493,35.76c0.704,15.955,3.698,31.515,2.932,47.587c-0.343,7.19-4.669,5.521-9.923,8.925
			c-9.119,5.908,1.118,8.128,7.117,8.69c6.39,0.599,16.608,0.852,20.122-5.416c2.789-4.974,2.081-11.449,2.081-16.873
			c0-8.815-0.065-17.629-0.428-26.426c-0.859-20.852-2.127-45.441-3.181-66.331c-0.46-9.116,4.23-29.247-2.706-36.085
			C220.445,328.352,212.169,343.242,203.351,347.691z"/>
		<g>
			<defs>
				<path id="XMLID_3_" d="M338.22,423.922c0,0,25.711,3.157,36.536-15.787s-4.06-46.46-9.472-64.051
					c-5.413-17.592-13.753-44.474,8.119-80.29c36.085-59.09,85.252-63.149,85.252-63.149s-22.553,29.319-13.081,60.443
					c9.472,31.124,40.145,86.154,28.868,124.945c-11.277,38.792-33.379,61.345-78.486,67.66c-45.107,6.315-67.66-21.2-67.66-21.2
					L338.22,423.922z"/>
			</defs>
			<use xlink:href="#XMLID_3_"  overflow="visible" fill="#BF3421"/>
			<clipPath id="XMLID_2_">
				<use xlink:href="#XMLID_3_"  overflow="visible"/>
			</clipPath>
			<path clip-path="url(#XMLID_2_)" fill="#FDF0E3" d="M383.477,236.128c5.614-2.317,11.91-4.767,17.966-5.336
				c1.096,8.199-5.861,15.983-4.643,23.901c6.034-2.338,10.809-9.331,16.749-12.623c5.57,4.669,7.019,14.345,9.126,21.071
				c4.261-2.058,8.577-12.192,10.224-16.683c6.555,0.201,12.477,13.51,17.997,17.146c-0.502-15.231,9.008-28.193,14.536-41.609
				c4.704-11.417,9.824-27.354-7.215-27.369c-19.441-0.018-37.723,12.294-52.913,23.169
				C399.298,222.095,391.204,227.127,383.477,236.128z"/>
		</g>
		<path fill="#FDF0E3" d="M153.734,267.401c-10.16,8.954-20.397,26.552-18.426,40.538c1.709-0.543,5.582-3.786,7.791-2.163
			c2.313,1.701,0.218,8.774-0.304,11.131c-1.117,5.046-4.933,19.306-1.364,23.52c1.416-2.491,4.043-5.682,6.821-6.209
			c0.203,3.721-0.657,8.037,0.148,11.667c0.857,3.865,3.343,8.078,4.959,11.649c5.934,0.052,5.628-10.477,10.013-2.598
			c4.896,8.796,11.887,17.226,19.441,24.1c4.511,4.105,11.207,12.911,16.615,6.552c5.85-6.878,9.466-19.956,9.427-28.85
			c3.087,3.211,3.233,10.004,6.666,12.677c4.272-3.466,7.875-9.489,10.306-14.521c2.265-4.691,2.275-9.869,4.095-14.395
			c5.849,3.13,7.112,11.228,10.768,1.141c3.163-8.728,3.218-16.258,4.228-25.071c1.428,1.186,2.692,3.136,4.466,4.12
			c12.299-13.234,5.557-49.883-9.433-58.964c-5.04-3.053-13.372-2.806-19.006-2.915c-10.767-0.21-21.243,1.37-31.944,1.859
			C176.449,261.243,165.162,266.804,153.734,267.401z"/>
		<path fill="#FDE7D1" d="M63.52,159.747c-18.412,16.974-44.69,41.212-48.021,67.28c9.979-2.566,19.252-11.983,30.531-12.458
			c-4.013,6.29-10.072,11.593-14.084,18.25c-4.113,6.824-6.421,13.95-8.511,21.403c12.192-3.829,23.036-15.109,36.411-16.21
			c-3.088,11.346-10.309,23.45-8.877,35.923c6.703-1.119,13.365-7.315,19.882-10.007c6.771-2.797,13.686-4.21,20.871-4.914
			c14.825-1.453,32.295-0.085,45.772,6.718c12.994,6.56,23.679,15.464,33.68,25.89c7.259,7.568,12.948,17.839,20.928,24.455
			c1.981-50.633-7.222-101.376-46.483-136.816c-13.365-12.064-29.66-20.56-47.623-22.975
			C86.546,154.748,77.119,156.048,63.52,159.747z"/>
		<path fill="#FDE7D1" d="M328.387,159.747c18.412,16.974,44.69,41.212,48.021,67.28c-9.979-2.566-19.253-11.983-30.531-12.458
			c4.013,6.29,10.072,11.593,14.084,18.25c4.113,6.824,6.421,13.95,8.511,21.403c-12.192-3.829-23.036-15.109-36.411-16.21
			c3.088,11.346,10.309,23.45,8.877,35.923c-6.703-1.119-13.365-7.315-19.882-10.007c-6.771-2.797-13.686-4.21-20.871-4.914
			c-14.825-1.453-32.295-0.085-45.772,6.718c-12.994,6.56-23.679,15.464-33.68,25.89c-7.259,7.568-12.948,17.839-20.928,24.455
			c-1.981-50.633,7.222-101.376,46.483-136.816c13.365-12.064,29.66-20.56,47.623-22.975
			C305.361,154.748,314.787,156.048,328.387,159.747z"/>
		<g>
			<path fill="#BF3421" d="M74.346,159.145c-0.089-5.24-5.186-13.098-7.2-18.054c-2.904-7.146-6.367-13.279-8.438-20.737
				c-3.025-10.894-7.315-24.015-6.013-35.433c2.508-22,45.76,9.007,54.111,15.285c8.581,6.451,19.492,14.218,25.215,23.307
				c-13.378,6.64-26.136,15.677-38.786,23.61C87.02,151.02,79.798,154.107,74.346,159.145z"/>
			<path fill="#FCDEBE" d="M84.57,159.747c-0.632-11.253-9.054-24.699-12.463-35.649c-1.458-4.683-11.476-23.208-6.21-26.327
				c6.86-4.063,23.189,8.667,28.597,11.757c10.525,6.014,23.981,13.129,27.981,23.171c1.55,3.892,1.749,1.971-0.77,5.566
				c-2.814,4.017-10.632,7.629-14.578,10.37C99.858,153.683,93.143,157.52,84.57,159.747z"/>
		</g>
		<g>
			<path fill="#BF3421" d="M329.048,165.16c0.089-5.24,5.186-13.098,7.2-18.054c2.904-7.146,6.367-13.279,8.438-20.737
				c3.025-10.894,7.315-24.015,6.013-35.433c-2.508-22-45.76,9.007-54.111,15.285c-8.581,6.451-19.492,14.218-25.215,23.307
				c13.378,6.64,26.136,15.677,38.786,23.61C316.373,157.034,323.595,160.121,329.048,165.16z"/>
			<path fill="#FCDEBE" d="M318.823,165.761c0.632-11.253,9.054-24.699,12.463-35.649c1.458-4.683,11.476-23.208,6.21-26.327
				c-6.86-4.063-24.085,5.442-30.4,11.456c-7.223,6.879-22.178,13.43-26.178,23.471c-1.55,3.892-1.749,1.971,0.77,5.566
				c2.814,4.017,10.632,7.629,14.578,10.37C303.536,159.698,310.251,163.534,318.823,165.761z"/>
		</g>
		<g>
			<circle fill="#FFFFFF" cx="118.851" cy="228.309" r="16.238"/>
			<circle fill="#1D1D1B" cx="118.851" cy="228.309" r="9.623"/>
			<circle fill="#FFFFFF" cx="122.572" cy="224.701" r="2.03"/>
		</g>
		<g>
			<circle fill="#FFFFFF" cx="282.438" cy="225.302" r="16.238"/>
			<circle fill="#1D1D1B" cx="282.438" cy="225.302" r="9.623"/>
			<circle fill="#FFFFFF" cx="286.159" cy="221.693" r="2.03"/>
		</g>
		<path fill="#BF3421" d="M59.912,162.754c0,0,40.897,0,76.982,34.281s46.911,95.626,48.114,98.032
			c1.203,2.406,3.007,15.036,3.007,15.036s3.609,1.203,10.826,1.203c7.217,0,12.028,1.203,12.028,1.203s-3.609-21.651,7.818-52.324
			c11.427-30.673,28.649-56.595,57.736-74.576c33.078-20.448,65.555-11.427,65.555-11.427s-46.911-72.171-126.299-72.772
			C136.292,100.808,82.766,127.872,59.912,162.754z"/>
		<path fill="#2D2317" d="M211.921,305.291c-8.439-1.818-41.03-4.213-32.588,12.676c2.49,4.982,8.394,11.172,13.644,12.707
			c7.977,2.331,12.636-2.154,17.09-8.507C213.415,317.391,219.121,307.951,211.921,305.291z"/>
	</g>
</g>
</svg>
