<?xml version="1.0" encoding="utf-8"?>
<!-- Generator: Adobe Illustrator 17.0.0, SVG Export Plug-In . SVG Version: 6.00 Build 0)  -->
<!DOCTYPE svg PUBLIC "-//W3C//DTD SVG 1.1//EN" "http://www.w3.org/Graphics/SVG/1.1/DTD/svg11.dtd">
<svg version="1.1" id="Layer_1" xmlns="http://www.w3.org/2000/svg" xmlns:xlink="http://www.w3.org/1999/xlink" x="0px" y="0px"
	 width="160px" height="65px" viewBox="0 0 160 65" enable-background="new 0 0 160 65" xml:space="preserve">
<g>
	<path fill="#4DC658" stroke="#FFFFFF" stroke-width="3" stroke-miterlimit="10" d="M100.282,32.5c0,10.493-8.507,19-19,19
		c0,0-0.797,0-2.155,0.054c-13.845,10.946-32.845,10.946-46.69,0C31.079,51.5,30.282,51.5,30.282,51.5c-10.493,0-19-8.507-19-19l0,0
		c0-10.493,8.507-19,19-19c0,0,0.797,0,2.155-0.054c13.845-10.946,32.845-10.946,46.69,0c1.358,0.054,2.155,0.054,2.155,0.054
		C91.776,13.5,100.282,22.007,100.282,32.5L100.282,32.5z"/>
	<g>
		<g>
			<path fill="#FFFFFF" d="M37.66,38.07c0.123,0,0.245,0.023,0.367,0.069c0.123,0.046,0.24,0.125,0.353,0.237l2.052,2.159
				c-0.898,1.175-2.024,2.061-3.377,2.657c-1.354,0.598-2.954,0.896-4.802,0.896c-1.695,0-3.214-0.288-4.557-0.865
				s-2.481-1.373-3.416-2.39c-0.934-1.016-1.652-2.221-2.152-3.614c-0.5-1.394-0.75-2.908-0.75-4.542
				c0-1.664,0.271-3.193,0.812-4.587s1.302-2.596,2.282-3.607s2.154-1.797,3.523-2.359c1.368-0.562,2.874-0.842,4.518-0.842
				c0.837,0,1.626,0.074,2.366,0.222s1.432,0.352,2.076,0.612c0.643,0.261,1.235,0.575,1.776,0.942
				c0.541,0.368,1.021,0.766,1.44,1.195l-1.746,2.343c-0.112,0.143-0.245,0.273-0.398,0.391s-0.367,0.176-0.643,0.176
				c-0.184,0-0.357-0.041-0.521-0.123c-0.164-0.082-0.337-0.181-0.521-0.299c-0.184-0.117-0.386-0.245-0.605-0.383
				c-0.22-0.138-0.48-0.265-0.781-0.383c-0.301-0.117-0.653-0.217-1.057-0.299c-0.403-0.082-0.875-0.123-1.417-0.123
				c-0.857,0-1.641,0.159-2.351,0.475s-1.323,0.779-1.838,1.386c-0.516,0.608-0.914,1.354-1.194,2.236
				c-0.281,0.883-0.421,1.892-0.421,3.025c0,1.144,0.156,2.16,0.467,3.048c0.312,0.889,0.735,1.637,1.271,2.244
				s1.162,1.07,1.876,1.387c0.714,0.316,1.48,0.475,2.297,0.475c0.47,0,0.898-0.023,1.287-0.069c0.388-0.046,0.75-0.122,1.087-0.229
				s0.653-0.25,0.95-0.429c0.296-0.179,0.597-0.406,0.903-0.682c0.123-0.102,0.255-0.187,0.398-0.253S37.507,38.07,37.66,38.07z"/>
			<path fill="#FFFFFF" d="M62.717,43.844h-4.013c-0.45,0-0.812-0.104-1.087-0.314c-0.276-0.209-0.485-0.477-0.628-0.804
				l-1.317-3.891h-8.485l-1.317,3.891c-0.112,0.286-0.314,0.544-0.605,0.773s-0.651,0.345-1.08,0.345H40.14l8.639-22.316h5.299
				L62.717,43.844z M54.492,35.313l-2.068-6.111c-0.153-0.388-0.316-0.845-0.49-1.371c-0.173-0.525-0.347-1.095-0.521-1.708
				c-0.153,0.623-0.317,1.2-0.49,1.73c-0.174,0.531-0.337,0.991-0.49,1.378l-2.052,6.081L54.492,35.313L54.492,35.313z"/>
			<path fill="#FFFFFF" d="M89.565,21.528v22.316h-4.563V31.009c0-0.296,0.007-0.618,0.022-0.965s0.043-0.699,0.084-1.057
				L79.181,40.46c-0.184,0.357-0.432,0.628-0.743,0.812s-0.666,0.275-1.064,0.275h-0.705c-0.398,0-0.753-0.092-1.064-0.275
				s-0.559-0.454-0.743-0.812l-5.927-11.503c0.03,0.368,0.056,0.728,0.077,1.08c0.02,0.353,0.03,0.677,0.03,0.973v12.835h-4.564
				V21.528h3.952c0.224,0,0.421,0.005,0.589,0.015s0.319,0.041,0.452,0.092c0.132,0.051,0.252,0.13,0.36,0.237
				c0.107,0.107,0.211,0.258,0.314,0.452l5.744,11.318c0.204,0.388,0.4,0.792,0.589,1.21c0.189,0.419,0.37,0.848,0.544,1.287
				c0.173-0.449,0.354-0.889,0.543-1.317c0.188-0.429,0.391-0.837,0.605-1.226l5.728-11.272c0.103-0.194,0.207-0.345,0.314-0.452
				s0.227-0.186,0.359-0.237c0.133-0.051,0.284-0.082,0.452-0.092c0.169-0.01,0.365-0.015,0.59-0.015
				C85.613,21.528,89.565,21.528,89.565,21.528z"/>
		</g>
	</g>
	<g>
		<path fill="#FFFFFF" d="M130.033,21.528v22.316h-4.564V31.009c0-0.296,0.008-0.618,0.022-0.965
			c0.016-0.347,0.044-0.699,0.085-1.057l-5.928,11.472c-0.184,0.357-0.432,0.628-0.743,0.812s-0.666,0.275-1.064,0.275h-0.704
			c-0.398,0-0.753-0.092-1.064-0.275s-0.56-0.454-0.743-0.812l-5.927-11.503c0.03,0.368,0.056,0.728,0.076,1.08
			c0.021,0.353,0.03,0.677,0.03,0.973v12.835h-4.563V21.528h3.951c0.225,0,0.421,0.005,0.59,0.015
			c0.168,0.01,0.319,0.041,0.452,0.092c0.132,0.051,0.252,0.13,0.359,0.237s0.212,0.258,0.314,0.452l5.743,11.318
			c0.204,0.388,0.4,0.792,0.59,1.21c0.188,0.419,0.37,0.848,0.544,1.287c0.173-0.449,0.354-0.889,0.543-1.317
			c0.189-0.429,0.391-0.837,0.605-1.226l5.729-11.272c0.102-0.194,0.206-0.345,0.313-0.452s0.228-0.186,0.36-0.237
			c0.132-0.051,0.283-0.082,0.451-0.092c0.169-0.01,0.365-0.015,0.59-0.015C126.08,21.528,130.033,21.528,130.033,21.528z"/>
		<path fill="#FFFFFF" d="M139.56,25.51v5.208h7.015v3.83h-7.015v5.314h9.158v3.982h-14.366V21.528h14.366v3.982H139.56z"/>
	</g>
</g>
</svg>
