<?xml version="1.0" encoding="utf-8"?>
<!-- Generator: Adobe Illustrator 17.0.0, SVG Export Plug-In . SVG Version: 6.00 Build 0)  -->
<!DOCTYPE svg PUBLIC "-//W3C//DTD SVG 1.1//EN" "http://www.w3.org/Graphics/SVG/1.1/DTD/svg11.dtd">
<svg version="1.1" id="Layer_1" xmlns="http://www.w3.org/2000/svg" xmlns:xlink="http://www.w3.org/1999/xlink" x="0px" y="0px"
	 width="234.667px" height="94.939px" viewBox="0 0 234.667 94.939" enable-background="new 0 0 234.667 94.939"
	 xml:space="preserve">
<path fill="#F79100" d="M143.425,78.06c0,2.668-2.163,4.582-4.831,4.582c0,0-14.492,0-33.815,0c-2.415,0-3.442,2.178-5.492,3.371
	c-15.764,9.314-36.053,10.217-51.817-0.062c-2.049-1.193-3.076-3.309-5.491-3.309c-19.323,0-33.815,0-33.815,0
	c-2.668,0-4.831-1.914-4.831-4.582V17.193c0-2.668,2.163-5.08,4.831-5.08c0,0,14.492,0,33.815,0c2.415,0,3.442-1.929,5.492-3.122
	C63.235-0.322,83.524-1.351,99.288,8.929c2.049,1.193,3.076,3.184,5.491,3.184c19.323,0,33.815,0,33.815,0
	c2.668,0,4.831,2.412,4.831,5.08V78.06z"/>
<g>
	<path d="M177.489,51.024l6.255-20.413c1.08-3.468,3.355-5.231,6.312-5.231c3.184,0,5.288,2.104,5.856,6.084l4.89,33.207v0.227
		c0,0.057,0.057,0.114,0.057,0.171c0,2.843-1.934,4.549-4.492,4.549c-2.957,0-4.378-1.421-4.777-4.378l-2.9-21.551
		c-2.274,6.937-4.435,15.011-6.653,21.892c-0.853,2.729-2.672,4.094-4.663,4.094c-2.218,0-3.924-1.308-4.719-4.094l-6.027-22.005
		l-3.639,21.607c-0.455,2.786-1.706,4.435-4.663,4.435c-2.729,0-4.435-1.421-4.435-4.435c0-0.398,0-0.796,0.057-1.251l5.231-32.525
		c0.683-4.037,2.672-6.141,5.913-6.141c2.9,0,5.175,1.933,6.255,5.402L177.489,51.024z"/>
	<path d="M205.576,30.44c0-3.298,1.649-4.947,4.776-4.947h16.035c3.071,0,4.549,1.422,4.549,4.549c0,3.014-1.478,4.549-4.549,4.549
		h-11.713v7.676h9.154c3.071,0,4.549,1.535,4.549,4.606c0,2.957-1.478,4.492-4.549,4.492h-9.154v9.211h12.111
		c3.298,0,4.89,1.478,4.89,4.549c0,3.014-1.592,4.549-4.89,4.549h-16.433c-4.208,0-4.776-1.024-4.776-5.004V30.44z"/>
</g>
<g>
	<path fill="#FFFFFF" d="M39.764,56.994c3.241,0,4.549,2.218,4.549,4.606c0,1.478-0.455,2.786-1.706,3.924
		c-3.696,3.298-8.017,5.06-12.964,5.06c-13.761,0-20.584-11.429-20.584-22.915c0-11.6,6.994-23.313,20.868-23.313
		c4.834,0,9.212,1.535,12.965,4.947c1.137,1.08,1.762,2.388,1.762,3.866c0,2.9-1.99,4.719-4.492,4.719
		c-1.137,0-2.672-0.511-3.468-1.364c-1.763-1.763-4.322-2.672-6.937-2.672c-7.506,0-11.145,6.709-11.145,13.476
		c0,6.937,3.809,13.476,11.201,13.476c2.616,0,5.004-0.625,6.823-2.445C37.66,57.335,38.57,56.994,39.764,56.994z"/>
	<path fill="#FFFFFF" d="M74.787,61.941H60.288c-0.568,1.478-1.024,2.9-1.535,4.265c-0.853,2.502-2.502,3.753-4.834,3.753
		c-3.07,0-4.321-2.161-4.321-4.492c0-0.626,0.171-1.308,0.341-1.877L61.88,29.814c0.967-2.672,2.9-4.037,5.515-4.037
		c2.616,0,4.549,1.365,5.516,4.037c12.566,34.344,12.68,35.14,12.68,35.709c0,2.558-1.592,4.435-4.435,4.435
		c-2.161,0-3.639-1.024-4.378-2.9L74.787,61.941z M63.302,52.729h8.075c-1.536-4.492-1.934-5.231-3.981-11.258L63.302,52.729z"/>
	<path fill="#FFFFFF" d="M112.256,51.308l6.255-20.413c1.08-3.468,3.355-5.231,6.312-5.231c3.184,0,5.288,2.104,5.856,6.084
		l4.89,33.207v0.227c0,0.057,0.057,0.114,0.057,0.171c0,2.843-1.934,4.549-4.492,4.549c-2.957,0-4.378-1.421-4.776-4.378
		l-2.9-21.551c-2.274,6.937-4.435,15.011-6.653,21.892c-0.853,2.729-2.672,4.094-4.663,4.094c-2.218,0-3.924-1.308-4.719-4.094
		l-6.027-22.005l-3.639,21.607c-0.455,2.786-1.706,4.435-4.663,4.435c-2.729,0-4.435-1.421-4.435-4.435c0-0.398,0-0.796,0.057-1.251
		l5.231-32.525c0.683-4.037,2.672-6.141,5.913-6.141c2.9,0,5.175,1.933,6.255,5.402L112.256,51.308z"/>
</g>
</svg>
